# xmcd
#
# Track frame offsets:
# 150
# 17497
# 30902
# 53142
# 68845
# 88197
# 111405
# 127340
# 143782
# 161650
#
# Disc length: 2361 seconds
#
#
# Revision: 1
# Processed by: cddbd v1.5.2PL0 Copyright (c) Steve Scherf et al.
# Submitted via: FreeRIP 2.80 
#
DISCID=8709370a
DTITLE=Julio Iglesias - Minhas Canções Preferidas
DYEAR=1900
DGENRE=Cabaret
TTITLE0=Hey
TTITLE1=Pobre Diabo
TTITLE2=Me Esqueci de Viver
TTITLE3=Não Venho Nem Vou
TTITLE4=Inesquecivel Boemia
TTITLE5=A Menos Que
TTITLE6=Camiñito
TTITLE7=Velhas Tradições
TTITLE8=Por Ela
TTITLE9=Por Você
EXTD=
EXTT0=
EXTT1=
EXTT2=
EXTT3=
EXTT4=
EXTT5=
EXTT6=
EXTT7=
EXTT8=
EXTT9=
PLAYORDER=
